<svg xmlns="http://www.w3.org/2000/svg" viewBox="0 0 720 640" fill="none">
  <rect width="720" height="640" rx="36" fill="#07110d"/>
  <circle cx="362" cy="260" r="180" fill="url(#a)" fill-opacity=".25"/>
  <circle cx="362" cy="260" r="118" fill="url(#b)" fill-opacity=".25"/>
  <path d="M361 80c-52 49-95 108-95 179 0 56 33 103 80 127v108" stroke="url(#c)" stroke-linecap="round" stroke-width="18"/>
  <path d="M360 178c-34 8-76 38-97 74M364 238c43-2 93 22 118 65M349 299c-38 8-77 34-103 71M374 356c37 0 73 20 96 51" stroke="#7ee787" stroke-linecap="round" stroke-opacity=".85" stroke-width="10"/>
  <circle cx="265" cy="252" r="10" fill="#7ee787"/>
  <circle cx="479" cy="302" r="10" fill="#7ee787"/>
  <circle cx="246" cy="370" r="10" fill="#7ee787"/>
  <circle cx="469" cy="408" r="10" fill="#7ee787"/>
  <path d="M236 516h248" stroke="#e7f6ec" stroke-linecap="round" stroke-opacity=".16" stroke-width="18"/>
  <path d="M130 110c70 35 134 48 194 41M486 149c45 4 82 18 107 36M136 470c74-34 140-47 215-40M480 418c38 8 67 22 94 45" stroke="#e7f6ec" stroke-linecap="round" stroke-opacity=".08" stroke-width="7"/>
  <defs>
    <linearGradient id="a" x1="182" x2="542" y1="80" y2="440" gradientUnits="userSpaceOnUse">
      <stop stop-color="#33d17a"/>
      <stop offset="1" stop-color="#07110d"/>
    </linearGradient>
    <linearGradient id="b" x1="244" x2="480" y1="142" y2="378" gradientUnits="userSpaceOnUse">
      <stop stop-color="#7ee787"/>
      <stop offset="1" stop-color="#33d17a"/>
    </linearGradient>
    <linearGradient id="c" x1="266" x2="426" y1="80" y2="494" gradientUnits="userSpaceOnUse">
      <stop stop-color="#7ee787"/>
      <stop offset="1" stop-color="#33d17a"/>
    </linearGradient>
  </defs>
</svg>
