<svg xmlns="http://www.w3.org/2000/svg" viewBox="0 0 128 128" fill="none">
  <rect width="128" height="128" rx="32" fill="#07110d"/>
  <path d="M63 19C49 34 42 45 42 60c0 11 8 20 18 24v19H43c-4 0-6 3-6 6s2 6 6 6h42c4 0 6-3 6-6s-2-6-6-6H68V84c10-4 18-13 18-24 0-15-7-26-23-41Z" fill="url(#a)"/>
  <path d="M63 30c-6 9-10 17-10 26 0 10 7 16 10 17 3-1 10-7 10-17 0-9-4-17-10-26Z" fill="#e7f6ec" fill-opacity=".2"/>
  <circle cx="64" cy="64" r="52" stroke="url(#b)" stroke-opacity=".35"/>
  <defs>
    <linearGradient id="a" x1="42" x2="86" y1="19" y2="115" gradientUnits="userSpaceOnUse">
      <stop stop-color="#7ee787"/>
      <stop offset="1" stop-color="#33d17a"/>
    </linearGradient>
    <linearGradient id="b" x1="18" x2="110" y1="18" y2="110" gradientUnits="userSpaceOnUse">
      <stop stop-color="#7ee787"/>
      <stop offset="1" stop-color="#07110d"/>
    </linearGradient>
  </defs>
</svg>
